<svg width="245" height="76" viewBox="0 0 245 76" fill="none" xmlns="http://www.w3.org/2000/svg">
<path d="M173 26H170V29H173V26Z" fill="#FF0000"/>
<path d="M173 29H170V32H173V29Z" fill="#FF0000"/>
<path d="M176 32H173V35H176V32Z" fill="#FF0000"/>
<path d="M179 29H176V32H179V29Z" fill="#FF0000"/>
<path d="M176 26H173V29H176V26Z" fill="#FF0000"/>
<path d="M170 29H167V32H170V29Z" fill="#FF0000"/>
<path d="M170 32H167V35H170V32Z" fill="#FF0000"/>
<path d="M170 35H167V38H170V35Z" fill="#FF0000"/>
<path d="M179 26H176V29H179V26Z" fill="#FF0000"/>
<path d="M173 35H170V38H173V35Z" fill="#FF0000"/>
<path d="M173 38H170V41H173V38Z" fill="#FF0000"/>
<path d="M176 35H173V38H176V35Z" fill="#FF0000"/>
<path d="M176 38H173V41H176V38Z" fill="#FF0000"/>
<path d="M176 41H173V44H176V41Z" fill="#FF0000"/>
<path d="M179 35H176V38H179V35Z" fill="#FF0000"/>
<path d="M179 32H176V35H179V32Z" fill="#FF0000"/>
<path d="M179 41H176V44H179V41Z" fill="#FF0000"/>
<path d="M179 38H176V41H179V38Z" fill="#FF0000"/>
<path d="M179 44H176V47H179V44Z" fill="#FF0000"/>
<path d="M188 26H191V29H188V26Z" fill="#FF0000"/>
<path d="M188 29H191V32H188V29Z" fill="#FF0000"/>
<path d="M185 29H188V32H185V29Z" fill="#FF0000"/>
<path d="M188 32H191V35H188V32Z" fill="#FF0000"/>
<path d="M185 32H188V35H185V32Z" fill="#FF0000"/>
<path d="M182 29H185V32H182V29Z" fill="#FF0000"/>
<path d="M185 26H188V29H185V26Z" fill="#FF0000"/>
<path d="M191 29H194V32H191V29Z" fill="#FF0000"/>
<path d="M197 33H200V36H197V33Z" fill="#FF0000"/>
<path d="M188 47H191V50H188V47Z" fill="#FF0000"/>
<path d="M179 53H182V56H179V53Z" fill="#FF0000"/>
<path d="M170 47H173V50H170V47Z" fill="#FF0000"/>
<path d="M185 20H188V23H185V20Z" fill="#FF0000"/>
<path d="M194 23H197V26H194V23Z" fill="#FF0000"/>
<path d="M164 23H167V26H164V23Z" fill="#FF0000"/>
<path d="M173 20H176V23H173V20Z" fill="#FF0000"/>
<path d="M161 33H164V36H161V33Z" fill="#FF0000"/>
<path d="M191 32H194V35H191V32Z" fill="#FF0000"/>
<path d="M191 35H194V38H191V35Z" fill="#FF0000"/>
<path d="M182 26H185V29H182V26Z" fill="#FF0000"/>
<path d="M188 35H191V38H188V35Z" fill="#FF0000"/>
<path d="M188 38H191V41H188V38Z" fill="#FF0000"/>
<path d="M185 35H188V38H185V35Z" fill="#FF0000"/>
<path d="M185 38H188V41H185V38Z" fill="#FF0000"/>
<path d="M185 41H188V44H185V41Z" fill="#FF0000"/>
<path d="M182 35H185V38H182V35Z" fill="#FF0000"/>
<path d="M182 32H185V35H182V32Z" fill="#FF0000"/>
<path d="M182 41H185V44H182V41Z" fill="#FF0000"/>
<path d="M182 38H185V41H182V38Z" fill="#FF0000"/>
<path d="M182 44H185V47H182V44Z" fill="#FF0000"/>
<path d="M182 29H179V32H182V29Z" fill="#FF0000"/>
<path d="M182 35H179V38H182V35Z" fill="#FF0000"/>
<path d="M182 32H179V35H182V32Z" fill="#FF0000"/>
<path d="M182 41H179V44H182V41Z" fill="#FF0000"/>
<path d="M182 38H179V41H182V38Z" fill="#FF0000"/>
<path d="M182 44H179V47H182V44Z" fill="#FF0000"/>
<path d="M182 47H179V50H182V47Z" fill="#FF0000"/>
<path d="M132 26H129V29H132V26Z" fill="#FF0000"/>
<path d="M129 26H126V29H129V26Z" fill="#FF0000"/>
<path d="M132 29H129V32H132V29Z" fill="#FF0000"/>
<path d="M135 32H132V35H135V32Z" fill="#FF0000"/>
<path d="M138 29H135V32H138V29Z" fill="#FF0000"/>
<path d="M135 26H132V29H135V26Z" fill="#FF0000"/>
<path d="M129 29H126V32H129V29Z" fill="#FF0000"/>
<path d="M129 32H126V35H129V32Z" fill="#FF0000"/>
<path d="M129 35H126V38H129V35Z" fill="#FF0000"/>
<path d="M126 29H123V32H126V29Z" fill="#FF0000"/>
<path d="M126 32H123V35H126V32Z" fill="#FF0000"/>
<path d="M126 35H123V38H126V35Z" fill="#FF0000"/>
<path d="M138 26H135V29H138V26Z" fill="#FF0000"/>
<path d="M132 35H129V38H132V35Z" fill="#FF0000"/>
<path d="M132 38H129V41H132V38Z" fill="#FF0000"/>
<path d="M135 35H132V38H135V35Z" fill="#FF0000"/>
<path d="M135 38H132V41H135V38Z" fill="#FF0000"/>
<path d="M135 41H132V44H135V41Z" fill="#FF0000"/>
<path d="M138 35H135V38H138V35Z" fill="#FF0000"/>
<path d="M138 32H135V35H138V32Z" fill="#FF0000"/>
<path d="M138 41H135V44H138V41Z" fill="#FF0000"/>
<path d="M138 38H135V41H138V38Z" fill="#FF0000"/>
<path d="M138 44H135V47H138V44Z" fill="#FF0000"/>
<path d="M147 26H150V29H147V26Z" fill="#FF0000"/>
<path d="M150 26H153V29H150V26Z" fill="#FF0000"/>
<path d="M147 29H150V32H147V29Z" fill="#FF0000"/>
<path d="M144 29H147V32H144V29Z" fill="#FF0000"/>
<path d="M147 32H150V35H147V32Z" fill="#FF0000"/>
<path d="M144 32H147V35H144V32Z" fill="#FF0000"/>
<path d="M141 29H144V32H141V29Z" fill="#FF0000"/>
<path d="M144 26H147V29H144V26Z" fill="#FF0000"/>
<path d="M150 29H153V32H150V29Z" fill="#FF0000"/>
<path d="M153 29H156V32H153V29Z" fill="#FF0000"/>
<path d="M153 32H156V35H153V32Z" fill="#FF0000"/>
<path d="M153 35H156V38H153V35Z" fill="#FF0000"/>
<path d="M150 32H153V35H150V32Z" fill="#FF0000"/>
<path d="M150 35H153V38H150V35Z" fill="#FF0000"/>
<path d="M141 26H144V29H141V26Z" fill="#FF0000"/>
<path d="M132 23H129V26H132V23Z" fill="#FF0000"/>
<path d="M135 23H132V26H135V23Z" fill="#FF0000"/>
<path d="M138 23H135V26H138V23Z" fill="#FF0000"/>
<path d="M147 23H150V26H147V23Z" fill="#FF0000"/>
<path d="M144 23H147V26H144V23Z" fill="#FF0000"/>
<path d="M141 23H144V26H141V23Z" fill="#FF0000"/>
<path d="M147 35H150V38H147V35Z" fill="#FF0000"/>
<path d="M147 38H150V41H147V38Z" fill="#FF0000"/>
<path d="M144 35H147V38H144V35Z" fill="#FF0000"/>
<path d="M144 38H147V41H144V38Z" fill="#FF0000"/>
<path d="M144 41H147V44H144V41Z" fill="#FF0000"/>
<path d="M141 35H144V38H141V35Z" fill="#FF0000"/>
<path d="M141 32H144V35H141V32Z" fill="#FF0000"/>
<path d="M141 41H144V44H141V41Z" fill="#FF0000"/>
<path d="M141 38H144V41H141V38Z" fill="#FF0000"/>
<path d="M141 44H144V47H141V44Z" fill="#FF0000"/>
<path d="M141 29H138V32H141V29Z" fill="#FF0000"/>
<path d="M141 26H138V29H141V26Z" fill="#FF0000"/>
<path d="M141 35H138V38H141V35Z" fill="#FF0000"/>
<path d="M141 32H138V35H141V32Z" fill="#FF0000"/>
<path d="M141 41H138V44H141V41Z" fill="#FF0000"/>
<path d="M141 38H138V41H141V38Z" fill="#FF0000"/>
<path d="M141 44H138V47H141V44Z" fill="#FF0000"/>
<path d="M141 47H138V50H141V47Z" fill="#FF0000"/>
<path d="M141 50H138V53H141V50Z" fill="#FF0000"/>
<path d="M150 38H153V41H150V38Z" fill="#FF0000"/>
<path d="M147 41H150V44H147V41Z" fill="#FF0000"/>
<path d="M144 44H147V47H144V44Z" fill="#FF0000"/>
<path d="M144 47H141V50H144V47Z" fill="#FF0000"/>
<path d="M129 38H126V41H129V38Z" fill="#FF0000"/>
<path d="M132 41H129V44H132V41Z" fill="#FF0000"/>
<path d="M135 44H132V47H135V44Z" fill="#FF0000"/>
<path d="M138 47H135V50H138V47Z" fill="#FF0000"/>
<path d="M91 26H88V29H91V26Z" fill="#FF0000"/>
<path d="M91 29H88V32H91V29Z" fill="#FF0000"/>
<path d="M94 32H91V35H94V32Z" fill="#FF0000"/>
<path d="M97 29H94V32H97V29Z" fill="#FF0000"/>
<path d="M94 26H91V29H94V26Z" fill="#FF0000"/>
<path d="M88 29H85V32H88V29Z" fill="#FF0000"/>
<path d="M88 32H85V35H88V32Z" fill="#FF0000"/>
<path d="M88 35H85V38H88V35Z" fill="#FF0000"/>
<path d="M97 26H94V29H97V26Z" fill="#FF0000"/>
<path d="M91 35H88V38H91V35Z" fill="#FF0000"/>
<path d="M91 38H88V41H91V38Z" fill="#FF0000"/>
<path d="M94 35H91V38H94V35Z" fill="#FF0000"/>
<path d="M94 38H91V41H94V38Z" fill="#FF0000"/>
<path d="M94 41H91V44H94V41Z" fill="#FF0000"/>
<path d="M97 35H94V38H97V35Z" fill="#FF0000"/>
<path d="M97 32H94V35H97V32Z" fill="#FF0000"/>
<path d="M97 41H94V44H97V41Z" fill="#FF0000"/>
<path d="M97 38H94V41H97V38Z" fill="#FF0000"/>
<path d="M97 44H94V47H97V44Z" fill="#FF0000"/>
<path d="M106 26H109V29H106V26Z" fill="#FF0000"/>
<path d="M106 29H109V32H106V29Z" fill="#FF0000"/>
<path d="M103 29H106V32H103V29Z" fill="#FF0000"/>
<path d="M106 32H109V35H106V32Z" fill="#FF0000"/>
<path d="M103 32H106V35H103V32Z" fill="#FF0000"/>
<path d="M100 29H103V32H100V29Z" fill="#FF0000"/>
<path d="M103 26H106V29H103V26Z" fill="#FF0000"/>
<path d="M109 29H112V32H109V29Z" fill="#FF0000"/>
<path d="M109 32H112V35H109V32Z" fill="#FF0000"/>
<path d="M109 35H112V38H109V35Z" fill="#FF0000"/>
<path d="M100 26H103V29H100V26Z" fill="#FF0000"/>
<path d="M106 35H109V38H106V35Z" fill="#FF0000"/>
<path d="M106 38H109V41H106V38Z" fill="#FF0000"/>
<path d="M103 35H106V38H103V35Z" fill="#FF0000"/>
<path d="M103 38H106V41H103V38Z" fill="#FF0000"/>
<path d="M103 41H106V44H103V41Z" fill="#FF0000"/>
<path d="M100 35H103V38H100V35Z" fill="#FF0000"/>
<path d="M100 32H103V35H100V32Z" fill="#FF0000"/>
<path d="M100 41H103V44H100V41Z" fill="#FF0000"/>
<path d="M100 38H103V41H100V38Z" fill="#FF0000"/>
<path d="M100 44H103V47H100V44Z" fill="#FF0000"/>
<path d="M100 29H97V32H100V29Z" fill="#FF0000"/>
<path d="M100 35H97V38H100V35Z" fill="#FF0000"/>
<path d="M100 32H97V35H100V32Z" fill="#FF0000"/>
<path d="M100 41H97V44H100V41Z" fill="#FF0000"/>
<path d="M100 38H97V41H100V38Z" fill="#FF0000"/>
<path d="M100 44H97V47H100V44Z" fill="#FF0000"/>
<path d="M100 47H97V50H100V47Z" fill="#FF0000"/>
<path d="M53 26H50V29H53V26Z" fill="black"/>
<path d="M53 29H50V32H53V29Z" fill="black"/>
<path d="M56 32H53V35H56V32Z" fill="black"/>
<path d="M59 29H56V32H59V29Z" fill="black"/>
<path d="M56 26H53V29H56V26Z" fill="black"/>
<path d="M50 29H47V32H50V29Z" fill="black"/>
<path d="M50 32H47V35H50V32Z" fill="black"/>
<path d="M50 35H47V38H50V35Z" fill="black"/>
<path d="M59 26H56V29H59V26Z" fill="black"/>
<path d="M53 35H50V38H53V35Z" fill="black"/>
<path d="M53 38H50V41H53V38Z" fill="black"/>
<path d="M56 35H53V38H56V35Z" fill="black"/>
<path d="M56 38H53V41H56V38Z" fill="black"/>
<path d="M56 41H53V44H56V41Z" fill="black"/>
<path d="M59 35H56V38H59V35Z" fill="#FF0000"/>
<path d="M59 32H56V35H59V32Z" fill="black"/>
<path d="M59 41H56V44H59V41Z" fill="black"/>
<path d="M59 38H56V41H59V38Z" fill="black"/>
<path d="M59 44H56V47H59V44Z" fill="black"/>
<path d="M68 26H71V29H68V26Z" fill="black"/>
<path d="M68 29H71V32H68V29Z" fill="black"/>
<path d="M65 29H68V32H65V29Z" fill="black"/>
<path d="M68 32H71V35H68V32Z" fill="black"/>
<path d="M65 32H68V35H65V32Z" fill="black"/>
<path d="M62 29H65V32H62V29Z" fill="black"/>
<path d="M65 26H68V29H65V26Z" fill="black"/>
<path d="M71 29H74V32H71V29Z" fill="black"/>
<path d="M71 32H74V35H71V32Z" fill="black"/>
<path d="M71 35H74V38H71V35Z" fill="black"/>
<path d="M62 26H65V29H62V26Z" fill="black"/>
<path d="M68 35H71V38H68V35Z" fill="black"/>
<path d="M68 38H71V41H68V38Z" fill="black"/>
<path d="M65 35H68V38H65V35Z" fill="black"/>
<path d="M65 38H68V41H65V38Z" fill="black"/>
<path d="M65 41H68V44H65V41Z" fill="black"/>
<path d="M62 35H65V38H62V35Z" fill="#FF0000"/>
<path d="M62 32H65V35H62V32Z" fill="black"/>
<path d="M62 41H65V44H62V41Z" fill="black"/>
<path d="M62 38H65V41H62V38Z" fill="black"/>
<path d="M62 44H65V47H62V44Z" fill="black"/>
<path d="M62 29H59V32H62V29Z" fill="black"/>
<path d="M62 35H59V38H62V35Z" fill="#FF0000"/>
<path d="M62 32H59V35H62V32Z" fill="#FF0000"/>
<path d="M62 41H59V44H62V41Z" fill="black"/>
<path d="M62 38H59V41H62V38Z" fill="#FF0000"/>
<path d="M62 44H59V47H62V44Z" fill="black"/>
<path d="M62 47H59V50H62V47Z" fill="black"/>
<path fill-rule="evenodd" clip-rule="evenodd" d="M9 26V29H6V38H9V41H12V44H15V47H18V50H21V47H24V44H27V41H30V38H33V29H30V26H21V29H18V26H9ZM12 32V29H15V32H12ZM12 32V35H9V32H12Z" fill="black"/>
<path d="M213 26H210V29H213V26Z" fill="#FF0000"/>
<path d="M213 29H210V32H213V29Z" fill="#FF0000"/>
<path d="M216 32H213V35H216V32Z" fill="#FF0000"/>
<path d="M219 29H216V32H219V29Z" fill="#FF0000"/>
<path d="M216 26H213V29H216V26Z" fill="#FF0000"/>
<path d="M210 29H207V32H210V29Z" fill="#FF0000"/>
<path d="M210 32H207V35H210V32Z" fill="#FF0000"/>
<path d="M210 35H207V38H210V35Z" fill="#FF0000"/>
<path d="M219 26H216V29H219V26Z" fill="#FF0000"/>
<path d="M213 35H210V38H213V35Z" fill="#FF0000"/>
<path d="M213 38H210V41H213V38Z" fill="#FF0000"/>
<path d="M216 35H213V38H216V35Z" fill="#FF0000"/>
<path d="M216 38H213V41H216V38Z" fill="#FF0000"/>
<path d="M216 41H213V44H216V41Z" fill="#FF0000"/>
<path d="M219 35H216V38H219V35Z" fill="#FF0000"/>
<path d="M219 32H216V35H219V32Z" fill="#FF0000"/>
<path d="M219 41H216V44H219V41Z" fill="#FF0000"/>
<path d="M219 38H216V41H219V38Z" fill="#FF0000"/>
<path d="M219 44H216V47H219V44Z" fill="#FF0000"/>
<path d="M228 26H231V29H228V26Z" fill="#FF0000"/>
<path d="M228 29H231V32H228V29Z" fill="#FF0000"/>
<path d="M225 29H228V32H225V29Z" fill="#FF0000"/>
<path d="M228 32H231V35H228V32Z" fill="#FF0000"/>
<path d="M225 32H228V35H225V32Z" fill="#FF0000"/>
<path d="M222 29H225V32H222V29Z" fill="#FF0000"/>
<path d="M225 26H228V29H225V26Z" fill="#FF0000"/>
<path d="M231 29H234V32H231V29Z" fill="#FF0000"/>
<path d="M231 32H234V35H231V32Z" fill="#FF0000"/>
<path d="M231 35H234V38H231V35Z" fill="#FF0000"/>
<path d="M222 26H225V29H222V26Z" fill="#FF0000"/>
<path d="M228 35H231V38H228V35Z" fill="#FF0000"/>
<path d="M228 38H231V41H228V38Z" fill="#FF0000"/>
<path d="M225 35H228V38H225V35Z" fill="#FF0000"/>
<path d="M225 38H228V41H225V38Z" fill="#FF0000"/>
<path d="M225 41H228V44H225V41Z" fill="#FF0000"/>
<path d="M222 35H225V38H222V35Z" fill="#FF0000"/>
<path d="M222 32H225V35H222V32Z" fill="#FF0000"/>
<path d="M222 41H225V44H222V41Z" fill="#FF0000"/>
<path d="M222 38H225V41H222V38Z" fill="#FF0000"/>
<path d="M222 44H225V47H222V44Z" fill="#FF0000"/>
<path d="M222 29H219V32H222V29Z" fill="#FF0000"/>
<path d="M222 35H219V38H222V35Z" fill="#FF0000"/>
<path d="M222 32H219V35H222V32Z" fill="#FF0000"/>
<path d="M222 41H219V44H222V41Z" fill="#FF0000"/>
<path d="M222 38H219V41H222V38Z" fill="#FF0000"/>
<path d="M222 44H219V47H222V44Z" fill="#FF0000"/>
<path d="M222 47H219V50H222V47Z" fill="#FF0000"/>
</svg>
