<svg width="214" height="76" viewBox="0 0 214 76" fill="none" xmlns="http://www.w3.org/2000/svg">
<path d="M91 26H88V29H91V26Z" fill="black"/>
<path d="M91 29H88V32H91V29Z" fill="#FF0000"/>
<path d="M94 32H91V35H94V32Z" fill="#FF0000"/>
<path d="M97 29H94V32H97V29Z" fill="#FF0000"/>
<path d="M94 26H91V29H94V26Z" fill="black"/>
<path d="M88 29H85V32H88V29Z" fill="black"/>
<path d="M88 32H85V35H88V32Z" fill="black"/>
<path d="M88 35H85V38H88V35Z" fill="black"/>
<path d="M97 26H94V29H97V26Z" fill="black"/>
<path d="M91 35H88V38H91V35Z" fill="#FF0000"/>
<path d="M91 38H88V41H91V38Z" fill="black"/>
<path d="M94 35H91V38H94V35Z" fill="#FF0000"/>
<path d="M94 38H91V41H94V38Z" fill="#FF0000"/>
<path d="M94 41H91V44H94V41Z" fill="black"/>
<path d="M97 35H94V38H97V35Z" fill="#FF0000"/>
<path d="M97 32H94V35H97V32Z" fill="#FF0000"/>
<path d="M97 41H94V44H97V41Z" fill="#FF0000"/>
<path d="M97 38H94V41H97V38Z" fill="#FF0000"/>
<path d="M97 44H94V47H97V44Z" fill="black"/>
<path d="M106 26H109V29H106V26Z" fill="black"/>
<path d="M106 29H109V32H106V29Z" fill="#FF0000"/>
<path d="M103 29H106V32H103V29Z" fill="#FF0000"/>
<path d="M106 32H109V35H106V32Z" fill="#FF0000"/>
<path d="M103 32H106V35H103V32Z" fill="#FF0000"/>
<path d="M100 29H103V32H100V29Z" fill="#FF0000"/>
<path d="M103 26H106V29H103V26Z" fill="black"/>
<path d="M109 29H112V32H109V29Z" fill="black"/>
<path d="M109 32H112V35H109V32Z" fill="black"/>
<path d="M109 35H112V38H109V35Z" fill="black"/>
<path d="M100 26H103V29H100V26Z" fill="black"/>
<path d="M106 35H109V38H106V35Z" fill="#FF0000"/>
<path d="M106 38H109V41H106V38Z" fill="black"/>
<path d="M103 35H106V38H103V35Z" fill="#FF0000"/>
<path d="M103 38H106V41H103V38Z" fill="#FF0000"/>
<path d="M103 41H106V44H103V41Z" fill="black"/>
<path d="M100 35H103V38H100V35Z" fill="#FF0000"/>
<path d="M100 32H103V35H100V32Z" fill="#FF0000"/>
<path d="M100 41H103V44H100V41Z" fill="#FF0000"/>
<path d="M100 38H103V41H100V38Z" fill="#FF0000"/>
<path d="M100 44H103V47H100V44Z" fill="black"/>
<path d="M100 29H97V32H100V29Z" fill="black"/>
<path d="M100 35H97V38H100V35Z" fill="#FF0000"/>
<path d="M100 32H97V35H100V32Z" fill="#FF0000"/>
<path d="M100 41H97V44H100V41Z" fill="#FF0000"/>
<path d="M100 38H97V41H100V38Z" fill="#FF0000"/>
<path d="M100 44H97V47H100V44Z" fill="#FF0000"/>
<path d="M100 47H97V50H100V47Z" fill="black"/>
<path d="M53 26H50V29H53V26Z" fill="black"/>
<path d="M53 29H50V32H53V29Z" fill="black"/>
<path d="M56 32H53V35H56V32Z" fill="black"/>
<path d="M59 29H56V32H59V29Z" fill="black"/>
<path d="M56 26H53V29H56V26Z" fill="black"/>
<path d="M50 29H47V32H50V29Z" fill="black"/>
<path d="M50 32H47V35H50V32Z" fill="black"/>
<path d="M50 35H47V38H50V35Z" fill="black"/>
<path d="M59 26H56V29H59V26Z" fill="black"/>
<path d="M53 35H50V38H53V35Z" fill="black"/>
<path d="M53 38H50V41H53V38Z" fill="black"/>
<path d="M56 35H53V38H56V35Z" fill="black"/>
<path d="M56 38H53V41H56V38Z" fill="black"/>
<path d="M56 41H53V44H56V41Z" fill="black"/>
<path d="M59 35H56V38H59V35Z" fill="#FF0000"/>
<path d="M59 32H56V35H59V32Z" fill="black"/>
<path d="M59 41H56V44H59V41Z" fill="black"/>
<path d="M59 38H56V41H59V38Z" fill="black"/>
<path d="M59 44H56V47H59V44Z" fill="black"/>
<path d="M68 26H71V29H68V26Z" fill="black"/>
<path d="M68 29H71V32H68V29Z" fill="black"/>
<path d="M65 29H68V32H65V29Z" fill="black"/>
<path d="M68 32H71V35H68V32Z" fill="black"/>
<path d="M65 32H68V35H65V32Z" fill="black"/>
<path d="M62 29H65V32H62V29Z" fill="black"/>
<path d="M65 26H68V29H65V26Z" fill="black"/>
<path d="M71 29H74V32H71V29Z" fill="black"/>
<path d="M71 32H74V35H71V32Z" fill="black"/>
<path d="M71 35H74V38H71V35Z" fill="black"/>
<path d="M62 26H65V29H62V26Z" fill="black"/>
<path d="M68 35H71V38H68V35Z" fill="black"/>
<path d="M68 38H71V41H68V38Z" fill="black"/>
<path d="M65 35H68V38H65V35Z" fill="black"/>
<path d="M65 38H68V41H65V38Z" fill="black"/>
<path d="M65 41H68V44H65V41Z" fill="black"/>
<path d="M62 35H65V38H62V35Z" fill="#FF0000"/>
<path d="M62 32H65V35H62V32Z" fill="black"/>
<path d="M62 41H65V44H62V41Z" fill="black"/>
<path d="M62 38H65V41H62V38Z" fill="black"/>
<path d="M62 44H65V47H62V44Z" fill="black"/>
<path d="M62 29H59V32H62V29Z" fill="black"/>
<path d="M62 35H59V38H62V35Z" fill="#FF0000"/>
<path d="M62 32H59V35H62V32Z" fill="#FF0000"/>
<path d="M62 41H59V44H62V41Z" fill="black"/>
<path d="M62 38H59V41H62V38Z" fill="#FF0000"/>
<path d="M62 44H59V47H62V44Z" fill="black"/>
<path d="M62 47H59V50H62V47Z" fill="black"/>
<path fill-rule="evenodd" clip-rule="evenodd" d="M9 26V29H6V38H9V41H12V44H15V47H18V50H21V47H24V44H27V41H30V38H33V29H30V26H21V29H18V26H9ZM12 32V29H15V32H12ZM12 32V35H9V32H12Z" fill="black"/>
</svg>
