<svg width="214" height="76" viewBox="0 0 214 76" fill="none" xmlns="http://www.w3.org/2000/svg">
<path d="M92 26H89V29H92V26Z" fill="black"/>
<path d="M92 29H89V32H92V29Z" fill="black"/>
<path d="M95 32H92V35H95V32Z" fill="black"/>
<path d="M98 29H95V32H98V29Z" fill="black"/>
<path d="M95 26H92V29H95V26Z" fill="black"/>
<path d="M89 29H86V32H89V29Z" fill="black"/>
<path d="M89 32H86V35H89V32Z" fill="black"/>
<path d="M89 35H86V38H89V35Z" fill="black"/>
<path d="M98 26H95V29H98V26Z" fill="black"/>
<path d="M92 35H89V38H92V35Z" fill="black"/>
<path d="M92 38H89V41H92V38Z" fill="black"/>
<path d="M95 35H92V38H95V35Z" fill="black"/>
<path d="M95 38H92V41H95V38Z" fill="black"/>
<path d="M95 41H92V44H95V41Z" fill="black"/>
<path d="M98 35H95V38H98V35Z" fill="black"/>
<path d="M98 32H95V35H98V32Z" fill="black"/>
<path d="M98 41H95V44H98V41Z" fill="black"/>
<path d="M98 38H95V41H98V38Z" fill="black"/>
<path d="M98 44H95V47H98V44Z" fill="black"/>
<path d="M107 26H110V29H107V26Z" fill="black"/>
<path d="M107 29H110V32H107V29Z" fill="black"/>
<path d="M104 29H107V32H104V29Z" fill="black"/>
<path d="M107 32H110V35H107V32Z" fill="black"/>
<path d="M104 32H107V35H104V32Z" fill="black"/>
<path d="M101 29H104V32H101V29Z" fill="black"/>
<path d="M104 26H107V29H104V26Z" fill="black"/>
<path d="M110 29H113V32H110V29Z" fill="black"/>
<path d="M110 32H113V35H110V32Z" fill="black"/>
<path d="M110 35H113V38H110V35Z" fill="black"/>
<path d="M101 26H104V29H101V26Z" fill="black"/>
<path d="M107 35H110V38H107V35Z" fill="black"/>
<path d="M107 38H110V41H107V38Z" fill="black"/>
<path d="M104 35H107V38H104V35Z" fill="black"/>
<path d="M104 38H107V41H104V38Z" fill="black"/>
<path d="M104 41H107V44H104V41Z" fill="black"/>
<path d="M101 35H104V38H101V35Z" fill="black"/>
<path d="M101 32H104V35H101V32Z" fill="black"/>
<path d="M101 41H104V44H101V41Z" fill="black"/>
<path d="M101 38H104V41H101V38Z" fill="black"/>
<path d="M101 44H104V47H101V44Z" fill="black"/>
<path d="M101 29H98V32H101V29Z" fill="black"/>
<path d="M101 35H98V38H101V35Z" fill="black"/>
<path d="M101 32H98V35H101V32Z" fill="black"/>
<path d="M101 41H98V44H101V41Z" fill="black"/>
<path d="M101 38H98V41H101V38Z" fill="black"/>
<path d="M101 44H98V47H101V44Z" fill="black"/>
<path d="M101 47H98V50H101V47Z" fill="black"/>
<path d="M52 26H49V29H52V26Z" fill="black"/>
<path d="M55 26H52V29H55V26Z" fill="black"/>
<path d="M49 29H46V32H49V29Z" fill="black"/>
<path d="M49 32H46V35H49V32Z" fill="black"/>
<path d="M49 35H46V38H49V35Z" fill="black"/>
<path d="M58 26H55V29H58V26Z" fill="black"/>
<path d="M52 38H49V41H52V38Z" fill="black"/>
<path d="M55 41H52V44H55V41Z" fill="black"/>
<path d="M58 35H55V38H58V35Z" fill="black"/>
<path d="M58 44H55V47H58V44Z" fill="black"/>
<path d="M67 26H70V29H67V26Z" fill="black"/>
<path d="M64 26H67V29H64V26Z" fill="black"/>
<path d="M70 29H73V32H70V29Z" fill="black"/>
<path d="M70 32H73V35H70V32Z" fill="black"/>
<path d="M70 35H73V38H70V35Z" fill="black"/>
<path d="M61 26H64V29H61V26Z" fill="black"/>
<path d="M67 38H70V41H67V38Z" fill="black"/>
<path d="M64 41H67V44H64V41Z" fill="black"/>
<path d="M61 35H64V38H61V35Z" fill="black"/>
<path d="M61 44H64V47H61V44Z" fill="black"/>
<path d="M61 29H58V32H61V29Z" fill="black"/>
<path d="M61 35H58V38H61V35Z" fill="black"/>
<path d="M61 32H58V35H61V32Z" fill="black"/>
<path d="M61 38H58V41H61V38Z" fill="black"/>
<path d="M61 47H58V50H61V47Z" fill="black"/>
<path d="M12 26H9V29H12V26Z" fill="black"/>
<path d="M15 26H12V29H15V26Z" fill="black"/>
<path d="M9 29H6V32H9V29Z" fill="black"/>
<path d="M9 32H6V35H9V32Z" fill="black"/>
<path d="M9 35H6V38H9V35Z" fill="black"/>
<path d="M18 26H15V29H18V26Z" fill="black"/>
<path d="M12 38H9V41H12V38Z" fill="black"/>
<path d="M15 41H12V44H15V41Z" fill="black"/>
<path d="M18 44H15V47H18V44Z" fill="black"/>
<path d="M27 26H30V29H27V26Z" fill="black"/>
<path d="M24 26H27V29H24V26Z" fill="black"/>
<path d="M30 29H33V32H30V29Z" fill="black"/>
<path d="M30 32H33V35H30V32Z" fill="black"/>
<path d="M30 35H33V38H30V35Z" fill="black"/>
<path d="M21 26H24V29H21V26Z" fill="black"/>
<path d="M27 38H30V41H27V38Z" fill="black"/>
<path d="M24 41H27V44H24V41Z" fill="black"/>
<path d="M21 44H24V47H21V44Z" fill="black"/>
<path d="M21 29H18V32H21V29Z" fill="black"/>
<path d="M21 47H18V50H21V47Z" fill="black"/>
</svg>
